<svg version="1.1" xmlns="http://www.w3.org/2000/svg" style="display: block;" viewBox="667 427 789 305" width="789" height="305" preserveAspectRatio="none">
<path transform="translate(0,0)" fill="rgb(254,254,254)" d="M 683.33 438.311 C 694.906 438.243 748.484 436.963 756.109 439.659 C 764.916 447.638 821.311 577.766 830.756 598.491 C 838.222 581.883 899.735 443.263 905.211 440.243 C 910.455 437.352 964.072 436.984 971.009 439.379 C 973.8 440.342 974.846 441.951 976.331 444.369 C 985.662 459.556 992.562 477.709 1000.19 493.894 C 1016.65 528.599 1032.82 563.443 1048.69 598.422 C 1069.47 556.011 1088.19 513.812 1110.28 471.709 C 1124.44 497.143 1149.3 540.146 1160.32 565.724 C 1157.3 572.735 1149.36 586.43 1145.45 593.652 L 1104.48 670.636 C 1097.25 684.284 1090.77 698.694 1082.75 711.862 C 1081.47 713.96 1080.32 715.741 1078.07 716.889 C 1072.46 719.752 1024.59 719.697 1018.13 717.552 C 1014.88 716.47 1013.7 714.278 1012.01 711.488 C 1002.14 695.149 994.756 675.818 986.617 658.507 L 936.917 553.171 L 886.978 654.915 C 881.402 666.312 860.135 712.853 853.282 717.764 C 843.938 719.031 803.483 720.283 796.486 715.69 C 791.337 707.411 785.237 692.321 781.076 682.875 L 756.569 627.334 C 748.328 608.793 678.173 455.293 677.692 444.167 C 678.887 440.774 680.294 440.231 683.33 438.311 z"/>
<path transform="translate(0,0)" fill="rgb(0,191,236)" d="M 1132.53 438.413 C 1146.1 437.957 1162.34 438.584 1176.25 438.405 C 1189.81 438.23 1209.78 437.784 1222.8 439.101 C 1231.81 450.955 1304.43 560.943 1304.89 566.267 C 1305.25 570.358 1302.24 576.489 1300.46 580.049 C 1286.81 607.378 1267.73 636.114 1251.99 662.649 C 1242.86 678.057 1229.39 704.638 1218.62 717.343 C 1209.36 719.931 1137.51 718.963 1123.74 718.526 C 1151.83 668.821 1183.85 619.426 1212.33 569.775 C 1204.12 552.088 1133.33 444.948 1132.53 438.413 z"/>
<path transform="translate(0,0)" fill="rgb(0,191,236)" d="M 1294.56 670.089 L 1383.83 670.027 C 1399.82 670.012 1415.21 669.965 1431.69 670.356 C 1446.49 669.592 1440.36 692.443 1441.63 702.784 C 1444 721.964 1426.62 719.019 1414.75 718.823 L 1322.06 718.845 C 1312.82 718.849 1303.38 718.985 1294.15 718.823 C 1287.38 718.703 1272.46 719.882 1268.76 714.013 C 1268.56 712.584 1268.41 709.273 1269.21 708.192 C 1275.66 699.446 1284.96 674.84 1294.56 670.089 z"/>
</svg>